<svg xmlns="http://www.w3.org/2000/svg" width="1600" height="1000" viewBox="0 0 1600 1000" role="img" aria-labelledby="title desc">
  <title id="title">Учебный пример списка тем памяти Claude</title>
  <desc id="desc">Окно Settings, раздел Memory, переключатель памяти и три обезличенные темы</desc>
  <rect width="1600" height="1000" fill="#fff"/>
  <rect x="0" y="0" width="330" height="1000" fill="#f7f7f5"/>
  <path d="M330 0v1000" stroke="#deded9" stroke-width="2"/>
  <text x="56" y="86" fill="#1f2624" font-family="Arial, sans-serif" font-size="35" font-weight="700">Settings</text>
  <g fill="#303735" font-family="Arial, sans-serif" font-size="28">
    <text x="76" y="180">General</text>
    <text x="76" y="258">Account</text>
    <text x="76" y="336">Privacy</text>
    <text x="76" y="414">Capabilities</text>
  </g>
  <rect x="40" y="448" width="250" height="70" rx="15" fill="#e2e2df"/>
  <text x="76" y="493" fill="#1f2624" font-family="Arial, sans-serif" font-size="28" font-weight="600">Memory</text>

  <text x="392" y="92" fill="#161a19" font-family="Arial, sans-serif" font-size="42" font-weight="700">Memory</text>
  <text x="392" y="190" fill="#161a19" font-family="Arial, sans-serif" font-size="30">Generate memory from chats</text>
  <text x="392" y="235" fill="#777e7a" font-family="Arial, sans-serif" font-size="25">Allow Claude to generate memory from your chats</text>
  <rect x="1380" y="174" width="104" height="54" rx="27" fill="#3784d6"/>
  <circle cx="1456" cy="201" r="23" fill="#fff"/>
  <path d="M392 280h1092" stroke="#e1e1dc" stroke-width="2"/>

  <text x="392" y="360" fill="#161a19" font-family="Arial, sans-serif" font-size="34" font-weight="700">Topics</text>
  <text x="392" y="405" fill="#777e7a" font-family="Arial, sans-serif" font-size="25">What Claude remembers about you</text>

  <g font-family="Arial, sans-serif">
    <rect x="392" y="455" width="1092" height="132" rx="22" fill="#faf9f6" stroke="#d8d7d1" stroke-width="2"/>
    <text x="432" y="510" fill="#202725" font-size="29" font-weight="600">Моя роль и работа</text>
    <text x="432" y="552" fill="#747c78" font-size="22">3 записи</text>
    <text x="1434" y="536" fill="#747c78" font-size="46">›</text>

    <rect x="392" y="620" width="1092" height="132" rx="22" fill="#faf9f6" stroke="#d8d7d1" stroke-width="2"/>
    <text x="432" y="675" fill="#202725" font-size="29" font-weight="600">Контент и аудитория</text>
    <text x="432" y="717" fill="#747c78" font-size="22">4 записи</text>
    <text x="1434" y="701" fill="#747c78" font-size="46">›</text>

    <rect x="392" y="785" width="1092" height="132" rx="22" fill="#faf9f6" stroke="#d8d7d1" stroke-width="2"/>
    <text x="432" y="840" fill="#202725" font-size="29" font-weight="600">Стиль ответов</text>
    <text x="432" y="882" fill="#747c78" font-size="22">2 записи</text>
    <text x="1434" y="866" fill="#747c78" font-size="46">›</text>
  </g>
</svg>
